<?xml version="1.0" standalone="no"?>
<!DOCTYPE svg PUBLIC "-//W3C//DTD SVG 20010904//EN"
 "http://www.w3.org/TR/2001/REC-SVG-20010904/DTD/svg10.dtd">
<svg version="1.0" xmlns="http://www.w3.org/2000/svg"
 width="600.000000pt" height="600.000000pt" viewBox="0 0 600.000000 600.000000"
 preserveAspectRatio="xMidYMid meet">
<metadata>
Created by potrace 1.11, written by Peter Selinger 2001-2013
</metadata>
<g transform="translate(0.000000,600.000000) scale(0.100000,-0.100000)"
fill="#000000" stroke="none">
<path d="M4140 4132 c-31 -5 -69 -40 -92 -84 -20 -39 -128 -269 -128 -273 0
-2 -25 -56 -56 -121 -79 -167 -100 -212 -209 -449 -127 -274 -149 -323 -228
-490 -36 -77 -78 -169 -95 -205 -16 -36 -46 -101 -67 -145 -64 -138 -72 -175
-44 -227 17 -31 71 -58 116 -58 60 0 96 41 163 186 29 65 78 170 107 233 29
62 53 114 53 116 0 1 27 61 61 131 33 71 69 147 79 169 10 22 39 85 65 140 26
55 60 127 75 160 43 94 79 172 127 275 25 52 64 138 88 190 23 52 59 128 78
168 57 117 69 162 55 203 -19 55 -84 90 -148 81z"/>
<path d="M1903 3985 c-29 -29 -31 -36 -23 -65 12 -42 24 -55 90 -99 30 -21
110 -74 177 -119 67 -45 124 -82 128 -82 11 0 360 238 377 257 53 59 -11 162
-83 135 -13 -6 -82 -49 -153 -96 -71 -48 -132 -88 -136 -89 -4 -1 -70 40 -148
91 -77 52 -152 95 -168 97 -21 2 -37 -6 -61 -30z"/>
<path d="M1240 3783 c-22 -8 -99 -47 -145 -73 -22 -12 -166 -92 -320 -178
-154 -85 -302 -168 -330 -183 -446 -248 -440 -244 -440 -268 0 -23 75 -68 495
-298 36 -20 99 -55 140 -78 416 -234 586 -325 615 -331 116 -21 196 142 106
214 -15 11 -207 122 -323 186 -26 14 -83 45 -125 69 -43 24 -103 57 -133 74
-176 97 -281 156 -285 162 -2 4 13 16 33 26 20 11 57 31 82 46 25 14 77 43
115 64 130 71 344 190 475 264 30 17 80 45 111 61 30 17 63 44 72 59 56 95
-42 221 -143 184z"/>
<path d="M4673 3774 c-40 -20 -61 -51 -69 -101 -11 -73 9 -88 351 -280 171
-96 317 -177 325 -181 43 -20 230 -128 230 -132 0 -3 -26 -18 -58 -35 -31 -16
-68 -37 -82 -46 -14 -9 -54 -32 -90 -51 -36 -19 -164 -90 -285 -158 -121 -67
-245 -136 -275 -152 -81 -44 -112 -78 -116 -126 -5 -72 56 -142 124 -142 22 0
92 32 174 78 21 12 68 38 105 59 37 20 110 61 162 90 51 29 95 53 97 53 2 0
27 14 56 31 29 17 79 46 113 64 33 18 87 48 120 67 34 18 145 80 249 137 103
57 190 111 193 119 12 31 9 33 -332 222 -27 15 -66 36 -85 47 -19 11 -62 35
-95 53 -33 18 -80 44 -105 58 -25 14 -126 70 -225 125 -99 54 -205 113 -235
130 -153 86 -195 98 -247 71z"/>
<path d="M1745 3467 c-3 -7 -3 -89 -2 -183 3 -159 5 -172 26 -202 28 -40 50
-52 96 -52 85 0 120 43 129 160 l3 35 179 1 c98 0 182 -1 185 -3 4 -2 -79 -88
-185 -192 -105 -104 -252 -249 -326 -322 l-136 -134 1 -104 0 -103 510 0 c281
1 527 1 547 1 l38 1 -3 163 c-3 191 -13 222 -84 246 -84 30 -159 -22 -166
-115 l-4 -39 -217 -3 -218 -2 108 106 c60 58 209 205 332 326 l222 220 0 103
0 102 -516 1 c-384 0 -516 -3 -519 -11z"/>
</g>
</svg>
